<svg xmlns="http://www.w3.org/2000/svg" xmlns:xlink="http://www.w3.org/1999/xlink" version="1.1" x="0px" y="0px" viewBox="0 0 512 640" enable-background="new 0 0 512 512" xml:space="preserve"><path d="M501.336,341.326h-21.343v-32c0-5.891-4.78-10.656-10.655-10.656h-32v-31.998  c0-5.891-4.781-10.672-10.671-10.672h-31.999V224c0-5.89-4.781-10.671-10.672-10.671h-31.999V181.33  c0-5.891-4.78-10.656-10.655-10.656H330.67v-53.342c0-5.89-4.781-10.656-10.672-10.656H192.002c-5.89,0-10.664,4.766-10.664,10.656  v53.342h-10.664c-5.891,0-10.672,4.765-10.672,10.656v31.999h-31.999c-5.89,0-10.664,4.781-10.664,10.671V256H85.341  c-5.89,0-10.664,4.782-10.664,10.672v31.998H42.679c-5.891,0-10.672,4.766-10.672,10.656v32H10.68  c-5.891,0-10.672,4.781-10.672,10.67v42.672c0,5.891,4.781,10.656,10.672,10.656h202.658h85.333h0.016h202.649  c5.875,0,10.656-4.766,10.656-10.656v-42.672C511.992,346.107,507.211,341.326,501.336,341.326z M458.666,319.998v21.328H304.061  l-2.14-21.328h124.746H458.666z M286.875,383.996h-61.749l19.195-191.995h23.367L286.875,383.996z M415.995,277.328v21.342H299.78  l-2.125-21.342h86.341H415.995z M341.342,234.672h31.998V256h-77.81l-2.141-21.327H341.342z M330.67,192.001v21.328h-39.421  l-2.125-21.328h30.874H330.67z M202.674,128.003h31.999h42.671h31.998v42.671h-21.343v-31.999c0-5.891-4.78-10.672-10.655-10.672  c-5.898,0-10.672,4.781-10.672,10.672v31.999h-21.335v-31.999c0-5.891-4.773-10.672-10.664-10.672  c-5.891,0-10.672,4.781-10.672,10.672v31.999h-21.327V128.003z M181.338,192.001h10.664h30.882l-2.133,21.328h-39.413V192.001z   M138.676,234.672h31.999h47.944L216.486,256h-77.81V234.672z M96.005,277.328h31.999h86.349l-2.133,21.342H96.005V277.328z   M53.342,319.998h31.999h124.746l-2.133,21.328H53.342V319.998z M21.343,362.668h21.335h163.144l-2.133,21.328H21.343V362.668z   M490.665,383.996H308.311l-2.125-21.328h163.152h21.327V383.996z"/><text x="0" y="527" fill="#000000" font-size="5px" font-weight="bold" font-family="'Helvetica Neue', Helvetica, Arial-Unicode, Arial, Sans-serif">Created by lastspark</text><text x="0" y="532" fill="#000000" font-size="5px" font-weight="bold" font-family="'Helvetica Neue', Helvetica, Arial-Unicode, Arial, Sans-serif">from the Noun Project</text></svg>